<svg xmlns="http://www.w3.org/2000/svg" width="48" height="48" id="sh">
  <g stroke-linecap="round" stroke-linejoin="round" stroke-width="3" color="#000" font-family="sans-serif">
    <path fill="#242730" d="M703 1412.362c-.554 0-1 .446-1 1v1c0 .554.446 1 1 1h10.004l.016 6.485c0 .825.67 1.493 1.496 1.496l6.484.017v28.502c0 .857-.643 1.5-1.5 1.5h-23c-.857 0-1.5-.643-1.5-1.5v-1.5c0-.554-.446-1-1-1h-1c-.554 0-1 .446-1 1v1.5c0 2.467 2.033 4.5 4.5 4.5h23c2.467 0 4.5-2.033 4.5-4.5v-30.487a1.5 1.5 0 0 0-.44-1.06l-7.513-7.514a1.5 1.5 0 0 0-1.06-.44zm-11 21c0 .554.446 1 1 1h1c.554 0 1-.446 1-1v-10c0-.554-.446-1-1-1h-1c-.554 0-1 .446-1 1z" overflow="visible" style="line-height:normal;text-indent:0;text-align:start;text-decoration-line:none;text-decoration-style:solid;text-decoration-color:#000;text-transform:none;block-progression:tb;isolation:auto;mix-blend-mode:normal" transform="translate(-677 -1410.362)"></path>
    <path fill="#11c111" d="M696.5 408c-2.467 0-4.5 2.033-4.5 4.5v2.5c0 .554.446 1 1 1h1c.554 0 1-.446 1-1v-2.5c0-.857.643-1.5 1.5-1.5h2.5c.554 0 1-.446 1-1v-1c0-.554-.446-1-1-1h-2.5zM681 432c-1.108 0-2 .892-2 2v7c0 1.108.892 2 2 2h25c1.108 0 2-.892 2-2v-7c0-1.108-.892-2-2-2h-25zm9.46 2.586c.43 0 .823.086 1.224.258.105-.23.218-.258.476-.258.306 0 .383.097.393.498l.017.896v.05c0 .353-.113.495-.476.495-.382 0-.42-.21-.535-.44-.191-.371-.526-.581-.975-.581-.582 0-.936.305-.936.687 0 .487.536.534 1.5.735 1.156.238 1.7.756 1.7 1.7 0 1.147-.803 1.786-2.254 1.786-.478 0-.916-.049-1.403-.23-.105.18-.229.23-.439.23-.382 0-.525-.114-.535-.506l-.03-1.1v-.046c0-.401.134-.555.526-.555.363 0 .41.267.582.602.248.487.669.716 1.299.716.563 0 .908-.238.908-.677 0-.602-.536-.602-1.586-.88-1.05-.276-1.603-.63-1.603-1.575 0-1.06.878-1.805 2.148-1.805zm3.845.154h1.203c.4 0 .592.134.592.516 0 .334-.182.515-.516.515h-.076v1.069h1.527v-1.069h-.076c-.334 0-.516-.18-.516-.515 0-.382.191-.516.592-.516h1.203c.401 0 .574.134.574.516 0 .334-.163.515-.498.515h-.076v3.475h.076c.335 0 .498.172.498.506 0 .391-.182.516-.574.516h-1.203c-.391 0-.592-.125-.592-.516 0-.334.182-.506.516-.506h.076v-1.375h-1.527v1.375h.076c.334 0 .516.172.516.506 0 .391-.2.516-.592.516h-1.203c-.392 0-.582-.125-.582-.516 0-.334.171-.506.506-.506h.076v-3.475h-.076c-.335 0-.506-.18-.506-.515 0-.382.18-.516.582-.516z" overflow="visible" style="line-height:normal;text-indent:0;text-align:start;text-decoration-line:none;text-decoration-style:solid;text-decoration-color:#000;text-transform:none;block-progression:tb;isolation:auto;mix-blend-mode:normal" transform="translate(-677 -406)"></path>
  </g>
</svg>
